<svg xmlns="http://www.w3.org/2000/svg" viewBox="0 0 333 333"><circle fill-rule="evenodd" cx="166.5" cy="166.5" r="166.5"/><path fill="#fff" d="m252.66 106.57h-53.55v13.28h53.55v-13.28m20.664 75.952c0-31.21-17.316-50.54-47.43-50.54-21.406 0-47.07 12.99-47.07 50.857 0 37.867 23.96 50.23 47.07 50.23s42.493-9.823 47.25-31.05h-25.663c-3.624 5.244-7.148 10.789-21.583 10.789-14.436 0-21.248-10.948-21.248-23.307h68.59l.09-6.97m-68.751-9.743c0-11.329 8.941-20.19 21.505-20.19 12.564 0 21.395 8.699 21.395 20.19h-42.9m-56.46-11.277c9.803-5.447 16.296-11.715 16.296-27.12 0-15.402-8.613-34.45-40.503-34.45h-64.23v133.12c0 0 41.523 0 62.43 0 20.911 0 46.574-9.488 46.574-41.03.0001-19.972-12.157-27.14-20.573-30.529m-57.79-38.491h29.889c12.832 0 17.692 5.477 17.692 14.662 0 9.183-6.603 14.66-17.85 14.66-11.248 0-29.731 0-29.731 0v-29.322m29.731 86.72c-16.16 0-29.731 0-29.731 0v-35.392h29.731c17.268 0 20.594 9.605 20.594 17.696s-4.434 17.696-20.594 17.696"/></svg>