<svg xmlns="http://www.w3.org/2000/svg" viewBox="0 0 333 333" enable-background="new 0 0 333 333"><g fill="#fff"><path d="m166.5 0c-91.96 0-166.5 74.54-166.5 166.5 0 91.95 74.54 166.5 166.5 166.5 91.95 0 166.5-74.55 166.5-166.5 0-91.96-74.55-166.5-166.5-166.5m65.3 99.87l-38.542 73.47 3.15 3.853h35.07v52.37h-64.01l-5.615 3.644-18.08 34.454-4.161 4.161h-38.22v-38.512l29.422-56.11 9.218-17.578-3.222-3.7h-35.603v-52.55h64.25l5.912-3.514 18.239-34.784 3.819-3.891h38.37v38.697z"/><path fill-rule="evenodd" d="m166.5 0c-91.96 0-166.5 74.54-166.5 166.5 0 91.95 74.54 166.5 166.5 166.5 91.95 0 166.5-74.55 166.5-166.5 0-91.96-74.55-166.5-166.5-166.5m65.3 99.87l-38.542 73.47 3.15 3.853h35.07v52.37h-64.01l-5.615 3.644-18.08 34.454-4.161 4.161h-38.22v-38.512l29.422-56.11 9.218-17.578-3.222-3.7h-35.603v-52.55h64.25l5.912-3.514 18.239-34.784 3.819-3.891h38.37v38.697z"/></g></svg>