<svg xmlns="http://www.w3.org/2000/svg" viewBox="0 0 333 333"><circle fill-rule="evenodd" fill="#a2a2a2" cx="166.5" cy="166.5" r="166.5"/><g fill="#fff"><path d="m69 233.53l60.937-54.844 36.562 30.469 36.562-30.469 60.939 54.844h-195m195-103.59l-54.844 42.657 54.844 48.749v-91.41m-195 0l54.844 42.657-54.844 48.749v-91.41m0-30.469v18.282l97.5 79.22 97.5-79.22v-18.282h-195"/><path fill-rule="evenodd" d="m69 233.53l60.937-54.844 36.562 30.469 36.562-30.469 60.939 54.844h-195m195-103.59l-54.844 42.657 54.844 48.749v-91.41m-195 0l54.844 42.657-54.844 48.749v-91.41m0-30.469v18.282l97.5 79.22 97.5-79.22v-18.282h-195"/></g></svg>