<svg xmlns="http://www.w3.org/2000/svg" viewBox="0 0 333 333"><g fill="#fff"><path d="m94.44 196.31h42.28v-38.669c-21.643 4.356-42.28 24.748-42.28 38.669"/><path d="m0 0v333h333v-333h-333m284.05 216.27h-117.81v-49.48c8.718 0 22.523 1.971 29.898 4.501 0 0 0 13.229 0 25.02h42.25c-9.415-44.14-65.15-42.747-82.02-42.747v62.703h-107.42c-.889-3.643-1.364-7.379-1.364-11.177 0-32.28 42.814-55.876 89.01-65.05v-20.501c7.03-1.262 10.22-2.812 19.634-2.812v20.05c1.095-.013 9.02-.033 10.117-.033 62.854 0 119.08 28.547 119.08 68.35-.0001 3.799-.466 7.535-1.366 11.178"/><g fill-rule="evenodd"><path d="m94.44 196.31h42.28v-38.669c-21.643 4.356-42.28 24.748-42.28 38.669"/><path d="m0 0v333h333v-333h-333m284.05 216.27h-117.81v-49.48c8.718 0 22.523 1.971 29.898 4.501 0 0 0 13.229 0 25.02h42.25c-9.415-44.14-65.15-42.747-82.02-42.747v62.703h-107.42c-.889-3.643-1.364-7.379-1.364-11.177 0-32.28 42.814-55.876 89.01-65.05v-20.501c7.03-1.262 10.22-2.812 19.634-2.812v20.05c1.095-.013 9.02-.033 10.117-.033 62.854 0 119.08 28.547 119.08 68.35-.0001 3.799-.466 7.535-1.366 11.178"/></g></g></svg>