<svg xmlns="http://www.w3.org/2000/svg" viewBox="0 0 463.333 463.333"><g fill="#fff"><path d="m130.79 377.99c-.507 1.758 1.136 3.798 3.654 4.56 2.518.741 5.02-.05 5.556-1.791.521-1.773-1.126-3.798-3.64-4.557-2.535-.791-5.05.033-5.57 1.788"/><path d="m169.81 376.77c-2.579.475-4.449 2.313-4.129 4.147.331 1.773 2.719 2.881 5.301 2.406 2.625-.489 4.463-2.327 4.147-4.114-.334-1.821-2.69-2.896-5.319-2.439"/><path d="m0 0v463.33h158.08c15.5-3.571 18.601-12.07 18.601-21.58 0-5.301-.205-22.822-.302-41.4-61.868 13.454-74.923-26.24-74.923-26.24-10.116-25.703-24.692-32.54-24.692-32.54-20.18-13.803 1.521-13.519 1.521-13.519 22.33 1.568 34.09 22.92 34.09 22.92 19.834 33.996 52.02 24.17 64.716 18.485 1.996-14.371 7.758-24.19 14.12-29.738-49.39-5.62-101.32-24.691-101.32-109.9 0-24.279 8.689-44.12 22.916-59.692-2.309-5.603-9.922-28.22 2.154-58.854 0 0 18.676-5.974 61.17 22.799 17.741-4.929 36.766-7.399 55.664-7.486 18.899.087 37.938 2.557 55.711 7.486 42.45-28.773 61.1-22.799 61.1-22.799 12.11 30.634 4.492 53.25 2.183 58.854 14.26 15.574 22.887 35.413 22.887 59.692 0 85.42-52.02 104.22-101.55 109.73 7.977 6.902 15.08 20.435 15.08 41.18 0 29.756-.255 55.704-.255 63.03 0 11.259 5.551 18.589 18.01 19.58h158.37v-463.33h-463.33"/><path d="m148.64 382.25c.029 1.806 2.183 3.291 4.84 3.23 2.643-.032 4.78-1.554 4.719-3.388 0-1.82-2.169-3.295-4.812-3.244-2.658.047-4.747 1.55-4.747 3.402"/><path d="m97.45 342.74c-1.075.996-.805 3.071.651 4.621 1.406 1.554 3.481 2.01 4.542 1.029 1.108-.996.823-3.053-.633-4.621-1.456-1.55-3.467-2.01-4.56-1.029"/><path d="m116.45 367.04c-1.219 1.345-.68 3.891 1.266 5.682 1.899 1.834 4.495 2.197 5.715.853 1.298-1.331.712-3.891-1.219-5.682-1.914-1.82-4.525-2.198-5.762-.853"/><path d="m87.83 335.68c-.521 1.108.381 2.615 1.996 3.341 1.582.759 3.323.428 3.812-.68.558-1.108-.363-2.629-1.978-3.356-1.611-.757-3.352-.441-3.83.695"/><path d="m106.48 353.98c-1.395.949-1.395 3.323-.032 5.301 1.377 1.978 3.607 2.866 4.97 1.917 1.392-.967 1.392-3.341.032-5.351-1.395-1.961-3.592-2.816-4.97-1.867"/></g></svg>