<svg xmlns="http://www.w3.org/2000/svg" xmlns:xlink="http://www.w3.org/1999/xlink" viewBox="0 0 333 333"><circle fill-rule="evenodd" fill="#a2a2a2" cx="166.5" cy="166.5" r="166.5"/><path fill="#fff" d="m179.16 188.61c-6.761-5.562-24.711-18.19-24.711-26.22 0-2.107-.908-8.841 11.159-17.557 13.961-10.1 19.697-22.38 19.697-34.639 0-12.25-4.643-30.19-20.974-37.19h20.642l14.449-11.269c0 0-52.18-.549-67.14-.549-37.26 2.663-55.15 29.535-54.43 47.946 1.775 44.777 42.25 48.636 55.58 47.33-7.326 13.508-.732 24.564 5.56 30.15-24.515 0-36.05 2.447-46.798 8.345-6.341 3.484-28.408 16.975-28.408 37.655 0 20.662 23.18 39.16 66.61 39.16 43.41 0 63.921-25.25 63.921-46.873 0-21.629-8.389-30.737-15.16-36.3m-41.617-38.586c-8.489.888-36.732-11.139-36.732-48.676 0-26.398 19.474-30.438 23.853-30.438 17.14-.952 37.717 19.584 37.717 46.86-.0001 27.28-18.235 32.25-24.838 32.25m-7.279 111.36c-21.911 0-43-13.978-43-34.801 0-20.809 26.11-33.835 46.32-33.835 11.337 0 17.189 2.606 17.189 2.606s4.196 1.566 14.01 9.776c9.835 8.221 12.8 13.49 12.8 21.935 0 28.507-25.413 34.32-47.31 34.32m137.74-92.38h-25v26h-13v-26h-25v-15h25v-25h13v25h25v15" id="0"/><use xlink:href="#0"/></svg>