<svg xmlns="http://www.w3.org/2000/svg" viewBox="0 0 333 333"><g fill="#fff"><path d="m208.84 163.36c-4.595-2.985-10.224-5.568-16.72-7.663-6.435-2.053-13.736-3.938-21.631-5.631-6.264-1.461-10.815-2.563-13.545-3.345-2.646-.718-5.313-1.757-7.852-3.048-2.475-1.228-4.445-2.71-5.842-4.423-1.311-1.588-1.946-3.472-1.946-5.673 0-3.641 1.968-6.71 6.05-9.4 4.232-2.774 9.947-4.191 16.953-4.191 7.553 0 13.04 1.27 16.316 3.789 3.409 2.561 6.35 6.202 8.783 10.858 2.117 3.622 4 6.141 5.842 7.77 1.968 1.735 4.803 2.625 8.423 2.625 3.98 0 7.366-1.397 10.05-4.212 2.646-2.752 4-5.928 4-9.42 0-3.663-1.017-7.388-3.048-11.157-2.01-3.747-5.227-7.325-9.523-10.689-4.254-3.345-9.694-6.05-16.15-8.06-6.391-1.99-14.1-3.01-22.835-3.01-10.9 0-20.573 1.524-28.679 4.531-8.232 3.03-14.623 7.472-18.985 13.167-4.423 5.758-6.624 12.426-6.624 19.813 0 7.748 2.095 14.333 6.308 19.602 4.127 5.166 9.798 9.314 16.804 12.299 6.857 2.921 15.471 5.504 25.631 7.663 7.472 1.568 13.503 3.07 17.948 4.447 4.254 1.333 7.766 3.279 10.433 5.757 2.519 2.372 3.789 5.42 3.789 9.294 0 4.867-2.39 8.869-7.237 12.192-5.02 3.409-11.62 5.144-19.705 5.144-5.884 0-10.667-.846-14.223-2.539-3.512-1.673-6.264-3.811-8.19-6.352-1.99-2.625-3.894-5.969-5.629-9.949-1.546-3.639-3.45-6.477-5.737-8.381-2.328-1.99-5.249-3.01-8.614-3.01-4.085 0-7.514 1.27-10.202 3.811-2.708 2.539-4.083 5.651-4.083 9.229 0 5.737 2.115 11.686 6.264 17.675 4.105 5.928 9.523 10.753 16.11 14.289 9.187 4.889 20.975 7.344 35.03 7.344 11.702 0 21.989-1.799 30.561-5.376 8.656-3.598 15.343-8.658 19.872-15.07 4.529-6.435 6.837-13.781 6.837-21.824 0-6.732-1.333-12.532-3.98-17.232-2.645-4.68-6.35-8.596-11.03-11.644"/><path d="m0 0v333h333v-333h-333m212.31 270.5c-9.694 0-18.826-2.424-26.805-6.722-5.798 1.069-11.79 1.642-17.906 1.642-54.02 0-97.81-43.8-97.81-97.83 0-6.719.688-13.304 1.978-19.675-4.941-8.403-7.786-18.205-7.786-28.683 0-31.33 25.386-56.72 56.71-56.72 11.08 0 21.44 3.196 30.17 8.699 5.44-.931 11.03-1.429 16.74-1.429 54.01 0 97.8 43.798 97.8 97.81 0 7.229-.784 14.237-2.266 21 3.769 7.587 5.894 16.13 5.894 25.19 0 31.33-25.386 56.723-56.72 56.723"/><g fill-rule="evenodd"><path d="m208.84 163.36c-4.595-2.985-10.224-5.568-16.72-7.663-6.435-2.053-13.736-3.938-21.631-5.631-6.264-1.461-10.815-2.563-13.545-3.345-2.646-.718-5.313-1.757-7.852-3.048-2.475-1.228-4.445-2.71-5.842-4.423-1.311-1.588-1.946-3.472-1.946-5.673 0-3.641 1.968-6.71 6.05-9.4 4.232-2.774 9.947-4.191 16.953-4.191 7.553 0 13.04 1.27 16.316 3.789 3.409 2.561 6.35 6.202 8.783 10.858 2.117 3.622 4 6.141 5.842 7.77 1.968 1.735 4.803 2.625 8.423 2.625 3.98 0 7.366-1.397 10.05-4.212 2.646-2.752 4-5.928 4-9.42 0-3.663-1.017-7.388-3.048-11.157-2.01-3.747-5.227-7.325-9.523-10.689-4.254-3.345-9.694-6.05-16.15-8.06-6.391-1.99-14.1-3.01-22.835-3.01-10.9 0-20.573 1.524-28.679 4.531-8.232 3.03-14.623 7.472-18.985 13.167-4.423 5.758-6.624 12.426-6.624 19.813 0 7.748 2.095 14.333 6.308 19.602 4.127 5.166 9.798 9.314 16.804 12.299 6.857 2.921 15.471 5.504 25.631 7.663 7.472 1.568 13.503 3.07 17.948 4.447 4.254 1.333 7.766 3.279 10.433 5.757 2.519 2.372 3.789 5.42 3.789 9.294 0 4.867-2.39 8.869-7.237 12.192-5.02 3.409-11.62 5.144-19.705 5.144-5.884 0-10.667-.846-14.223-2.539-3.512-1.673-6.264-3.811-8.19-6.352-1.99-2.625-3.894-5.969-5.629-9.949-1.546-3.639-3.45-6.477-5.737-8.381-2.328-1.99-5.249-3.01-8.614-3.01-4.085 0-7.514 1.27-10.202 3.811-2.708 2.539-4.083 5.651-4.083 9.229 0 5.737 2.115 11.686 6.264 17.675 4.105 5.928 9.523 10.753 16.11 14.289 9.187 4.889 20.975 7.344 35.03 7.344 11.702 0 21.989-1.799 30.561-5.376 8.656-3.598 15.343-8.658 19.872-15.07 4.529-6.435 6.837-13.781 6.837-21.824 0-6.732-1.333-12.532-3.98-17.232-2.645-4.68-6.35-8.596-11.03-11.644"/><path d="m0 0v333h333v-333h-333m212.31 270.5c-9.694 0-18.826-2.424-26.805-6.722-5.798 1.069-11.79 1.642-17.906 1.642-54.02 0-97.81-43.8-97.81-97.83 0-6.719.688-13.304 1.978-19.675-4.941-8.403-7.786-18.205-7.786-28.683 0-31.33 25.386-56.72 56.71-56.72 11.08 0 21.44 3.196 30.17 8.699 5.44-.931 11.03-1.429 16.74-1.429 54.01 0 97.8 43.798 97.8 97.81 0 7.229-.784 14.237-2.266 21 3.769 7.587 5.894 16.13 5.894 25.19 0 31.33-25.386 56.723-56.72 56.723"/></g></g></svg>