<svg xmlns="http://www.w3.org/2000/svg" viewBox="0 0 333 333"><g fill="#fff"><path d="m166.5 0c-91.96 0-166.5 74.54-166.5 166.5 0 91.95 74.54 166.5 166.5 166.5 91.95 0 166.5-74.55 166.5-166.5 0-91.96-74.55-166.5-166.5-166.5m-97.5 129.94l54.844 42.657-54.844 48.749v-91.41m0 103.59l60.937-54.844 36.563 30.469 36.563-30.469 60.937 54.844h-195m195-12.187l-54.844-48.749 54.844-42.657v91.41m0-103.59l-97.5 79.22-97.5-79.22v-18.282h195v18.282"/><path fill-rule="evenodd" d="m166.5 0c-91.96 0-166.5 74.54-166.5 166.5 0 91.95 74.54 166.5 166.5 166.5 91.95 0 166.5-74.55 166.5-166.5 0-91.96-74.55-166.5-166.5-166.5m-97.5 129.94l54.844 42.657-54.844 48.749v-91.41m0 103.59l60.937-54.844 36.563 30.469 36.563-30.469 60.937 54.844h-195m195-12.187l-54.844-48.749 54.844-42.657v91.41m0-103.59l-97.5 79.22-97.5-79.22v-18.282h195v18.282"/></g></svg>