<svg xmlns="http://www.w3.org/2000/svg" viewBox="-1120.004 -1600.004 3745.313 3745.438"><path d="m752.65-1600c-1034.24 0-1872.66 838.42-1872.66 1872.66 0 796.76 497.6 1477.31 1198.98 1747.82 34.04 13.13 68.56 25.291 103.52 36.455.091.029.181.058.272.087.202.064.404.125.606.19 35.78 9.313 75.98-.719 86.27-10.672 23.11 0 987.73 10.931 993.98 10.931 9.625 4.675 41.23 3.58 56.42.345.331-.105.661-.21.992-.315 43.5-13.84 86.31-29.23 128.37-46.09 689.2-276.43 1175.91-950.75 1175.91-1738.75.0001-1034.24-838.41-1872.66-1872.65-1872.66"/><path fill="#fff" d="m1199.53 1970.99c0-59.22 2.061-252.8 2.061-493.33 0-167.71-57.44-277.1-121.92-332.89 400.31-44.507 820.84-196.51 820.84-886.98 0-196.26-69.74-356.62-185-482.51 18.665-45.29 80.2-228.12-17.646-475.74 0 0-150.73-48.29-493.86 184.29-143.67-39.844-297.57-59.809-450.33-60.51-152.77.703-306.55 20.669-449.95 60.51-343.5-232.58-494.46-184.29-494.46-184.29-97.62 247.63-36.08 430.45-17.412 475.74-115 125.89-185.24 286.26-185.24 482.51 0 688.8 419.75 842.96 819.04 888.41-51.43 44.887-98 124.22-114.13 240.38-102.59 45.93-362.8 125.38-523.12-149.42 0 0-95.06-172.6-275.56-185.27 0 0-175.41-2.296-12.295 109.28 0 0 117.82 55.27 199.6 263.03 0 0 105.53 320.85 605.63 212.1.784 150.2 2.441 291.84 2.441 334.69 0 47.47-32.996 103.11-122.83 86.48-.105-.033-.21-.073-.323-.113-.759-.105-1.528-.202-2.263-.348 179.7 57.34 371.13 88.41 569.85 88.41 198.08 0 388.93-30.855 568.13-87.85-89.35 16.265-121.24-39.15-121.24-86.59m-1562.64-835.93c-3.953 8.957-18.03 11.624-30.814 5.496-13.05-5.869-20.354-18.05-16.13-27.01 3.864-9.182 17.937-11.745 30.96-5.609 13.05 5.867 20.499 18.16 15.989 27.12m72.823 81.22c-8.577 7.938-25.349 4.243-36.715-8.318-11.777-12.529-13.952-29.3-5.262-37.35 8.835-7.938 25.09-4.212 36.86 8.317 11.777 12.676 14.07 29.31 5.117 37.36m70.875 103.52c-11.02 7.671-29.04.493-40.17-15.496-11.02-15.989-11.02-35.17.258-42.85 11.139-7.671 28.898-.76 40.18 15.08 10.987 16.264 10.987 35.446-.265 43.26m97.1 100.04c-9.854 10.873-30.846 7.938-46.2-6.895-15.722-14.478-20.09-35.06-10.234-45.93 9.999-10.873 31.1-7.817 46.568 6.887 15.617 14.477 20.354 35.18 9.862 45.938m133.96 58.08c-4.357 14.07-24.565 20.467-44.911 14.477-20.345-6.168-33.635-22.65-29.536-36.86 4.212-14.186 24.533-20.847 45.03-14.453 20.312 6.135 33.625 22.504 29.414 36.836m108.99 38.14c-21.486.494-38.897-11.511-39.12-26.11 0-14.97 16.887-27.12 38.37-27.5 21.364-.405 38.897 11.511 38.897 26.22.485 14.824-16.781 27.12-38.15 27.386m141.52-17.419c-20.872 3.84-40.18-5.117-42.85-19.448-2.587-14.825 12.529-29.682 33.376-33.522 21.251-3.694 40.29 5 42.995 19.707 2.555 14.46-12.302 29.31-33.521 33.26"/></svg>