<svg xmlns="http://www.w3.org/2000/svg" viewBox="0 0 333 333"><g fill="#fff"><path d="m124.66 70.907c-4.379 0-23.853 4.04-23.853 30.438 0 37.537 28.24 49.563 36.732 48.676 6.604 0 24.838-4.977 24.838-32.25-.0001-27.28-20.576-47.812-37.717-46.86"/><path d="m133.58 192.75c-20.21 0-46.32 13.03-46.32 33.835 0 20.823 21.09 34.801 43 34.801 21.902 0 47.31-5.812 47.31-34.32 0-8.445-2.965-13.714-12.8-21.935-9.813-8.21-14.01-9.776-14.01-9.776s-5.853-2.606-17.189-2.606"/><path d="m0 0v333h333v-333h-333m185.31 110.19c0 12.259-5.736 24.538-19.697 34.639-12.07 8.716-11.159 15.45-11.159 17.557 0 8.04 17.95 20.662 24.711 26.22 6.771 5.56 15.16 14.669 15.16 36.3 0 21.628-20.508 46.873-63.921 46.873-43.43 0-66.61-18.502-66.61-39.16 0-20.68 22.07-34.17 28.408-37.655 10.752-5.898 22.283-8.345 46.798-8.345-6.292-5.586-12.886-16.641-5.56-30.15-13.327 1.302-53.803-2.557-55.58-47.33-.722-18.412 17.17-45.28 54.43-47.946 14.957 0 67.14.549 67.14.549l-14.449 11.27h-20.642c16.331 7 20.974 24.936 20.974 37.19m82.69 58.814h-25v26h-13v-26h-25v-15h25v-25h13v25h25v15"/><g fill-rule="evenodd"><path d="m124.66 70.907c-4.379 0-23.853 4.04-23.853 30.438 0 37.537 28.24 49.563 36.732 48.676 6.604 0 24.838-4.977 24.838-32.25-.0001-27.28-20.576-47.812-37.717-46.86"/><path d="m133.58 192.75c-20.21 0-46.32 13.03-46.32 33.835 0 20.823 21.09 34.801 43 34.801 21.902 0 47.31-5.812 47.31-34.32 0-8.445-2.965-13.714-12.8-21.935-9.813-8.21-14.01-9.776-14.01-9.776s-5.853-2.606-17.189-2.606"/><path d="m0 0v333h333v-333h-333m185.31 110.19c0 12.259-5.736 24.538-19.697 34.639-12.07 8.716-11.159 15.45-11.159 17.557 0 8.04 17.95 20.662 24.711 26.22 6.771 5.56 15.16 14.669 15.16 36.3 0 21.628-20.508 46.873-63.921 46.873-43.43 0-66.61-18.502-66.61-39.16 0-20.68 22.07-34.17 28.408-37.655 10.752-5.898 22.283-8.345 46.798-8.345-6.292-5.586-12.886-16.641-5.56-30.15-13.327 1.302-53.803-2.557-55.58-47.33-.722-18.412 17.17-45.28 54.43-47.946 14.957 0 67.14.549 67.14.549l-14.449 11.27h-20.642c16.331 7 20.974 24.936 20.974 37.19m82.69 58.814h-25v26h-13v-26h-25v-15h25v-25h13v25h25v15"/></g></g></svg>