<svg xmlns="http://www.w3.org/2000/svg" xmlns:xlink="http://www.w3.org/1999/xlink" viewBox="0 0 333 333"><circle fill-rule="evenodd" cx="166.5" cy="166.5" r="166.5"/><path fill="#fff" d="m53.24 208.46l3.983-16.993-3.983-17.57c-.108-.527-1.101-.927-2.331-.927-1.234 0-2.232.4-2.327.927l-3.498 17.57 3.512 16.993c.089.533 1.093.925 2.327.925 1.216.0001 2.208-.392 2.317-.925m24.892 9.434l3.376-26.27-3.376-40.64c-.1-1.045-1.36-1.852-2.887-1.852-1.545 0-2.804.801-2.882 1.845l-2.997 40.647 2.997 26.27c.078 1.037 1.338 1.838 2.882 1.838 1.527.007 2.787-.801 2.887-1.838m24.844-.415l2.816-25.841-2.816-54.12c-.077-1.26-1.578-2.268-3.416-2.268-1.846 0-3.345.993-3.405 2.268l-2.504 54.12 2.504 25.856c.06 1.26 1.56 2.245 3.405 2.245 1.838 0 3.339-.986 3.416-2.26m24.792-.393l2.304-25.441-2.304-54.51c-.063-1.504-1.764-2.697-3.887-2.697-2.135 0-3.831 1.193-3.894 2.697l-2.057 54.51 2.064 25.441c.041 1.49 1.752 2.683 3.887 2.683 2.124 0 3.824-1.171 3.887-2.683m24.767-.319l1.822-25.11-1.822-62.51c-.037-1.72-1.987-3.12-4.34-3.12-2.36 0-4.302 1.4-4.343 3.12l-1.637 62.49c0 .03 1.637 25.12 1.637 25.12.041 1.704 1.983 3.098 4.343 3.098 2.353.014 4.303-1.372 4.34-3.084m17.341 3.106c.074 0 86.19.052 86.75.052 17.285 0 31.29-13.554 31.29-30.27 0-16.726-14-30.27-31.29-30.27-4.299 0-8.378.837-12.11 2.356-2.49-27.27-26.16-48.666-55-48.666-7.06 0-13.94 1.341-20.01 3.616-2.354.896-2.998 1.785-3.01 3.55v96.05c.029 1.86 1.501 3.409 3.376 3.58" id="0"/><use xlink:href="#0"/></svg>