<svg xmlns="http://www.w3.org/2000/svg" viewBox="0 0 333 333"><g fill="#fff"><path d="m166.5 0c-91.96 0-166.5 74.54-166.5 166.5 0 91.95 74.54 166.5 166.5 166.5 91.95 0 166.5-74.55 166.5-166.5 0-91.96-74.55-166.5-166.5-166.5m-65.792 217.17c-27.861 0-50.48-22.598-50.48-50.48 0-27.886 22.614-50.48 50.48-50.48 27.872 0 50.47 22.598 50.47 50.48 0 27.88-22.603 50.48-50.47 50.48m130.99 0c-27.863 0-50.47-22.598-50.47-50.48 0-27.886 22.612-50.48 50.47-50.48 27.881 0 50.48 22.598 50.48 50.48-.0001 27.88-22.595 50.48-50.48 50.48"/><path fill-rule="evenodd" d="m166.5 0c-91.96 0-166.5 74.54-166.5 166.5 0 91.95 74.54 166.5 166.5 166.5 91.95 0 166.5-74.55 166.5-166.5 0-91.96-74.55-166.5-166.5-166.5m-65.792 217.17c-27.861 0-50.48-22.598-50.48-50.48 0-27.886 22.614-50.48 50.48-50.48 27.872 0 50.47 22.598 50.47 50.48 0 27.88-22.603 50.48-50.47 50.48m130.99 0c-27.863 0-50.47-22.598-50.47-50.48 0-27.886 22.612-50.48 50.47-50.48 27.881 0 50.48 22.598 50.48 50.48-.0001 27.88-22.595 50.48-50.48 50.48"/></g></svg>