<svg xmlns="http://www.w3.org/2000/svg" viewBox="-879.991 -1600.004 799.973 800"><path fill="#a2a2a2" d="m-480-1600c-220.91 0-399.99 179.08-399.99 399.99 0 170.18 106.28 315.54 256.09 373.32 7.27 2.804 14.643 5.402 22.11 7.787.019.006.039.012.058.019.043.014.086.027.129.041 7.642 1.989 16.229-.154 18.426-2.279 4.935 0 210.97 2.335 212.31 2.335 2.056.999 8.806.765 12.05.074.071-.022.141-.045.212-.067 9.291-2.956 18.435-6.243 27.418-9.845 147.21-59.04 251.17-203.07 251.17-371.38.002-220.91-179.08-399.99-399.99-399.99"/><path fill="#fff" d="m-384.56-837.26c0-12.649.44-53.996.44-105.37 0-35.821-12.269-59.19-26.04-71.1 85.5-9.506 175.32-41.974 175.32-189.45 0-41.919-14.895-76.17-39.516-103.06 3.987-9.674 17.13-48.725-3.769-101.62 0 0-32.19-10.314-105.48 39.36-30.686-8.51-63.56-12.775-96.19-12.925-32.63.15-65.48 4.415-96.11 12.925-73.37-49.678-105.61-39.36-105.61-39.36-20.852 52.891-7.706 91.94-3.719 101.62-24.563 26.889-39.566 61.14-39.566 103.06 0 147.12 89.66 180.05 174.94 189.76-10.984 9.588-20.931 26.532-24.377 51.34-21.913 9.81-77.49 26.781-111.74-31.916 0 0-20.304-36.865-58.858-39.573 0 0-37.466-.49-2.626 23.342 0 0 25.17 11.805 42.632 56.18 0 0 22.54 68.53 129.36 45.3.167 32.08.521 62.34.521 71.49 0 10.14-7.05 22.02-26.24 18.473-.022-.007-.045-.016-.069-.024-.162-.022-.326-.043-.483-.074 38.38 12.248 79.27 18.883 121.72 18.883 42.31 0 83.07-6.59 121.35-18.764-19.08 3.475-25.895-8.361-25.895-18.494m-333.77-178.55c-.844 1.913-3.85 2.483-6.582 1.174-2.788-1.254-4.347-3.855-3.446-5.768.825-1.961 3.831-2.509 6.613-1.198 2.788 1.252 4.378 3.878 3.415 5.792m15.554 17.348c-1.832 1.695-5.414.906-7.842-1.777-2.516-2.676-2.98-6.259-1.124-7.979 1.887-1.695 5.359-.9 7.873 1.776 2.516 2.709 3.01 6.26 1.093 7.98m15.14 22.11c-2.353 1.638-6.204.105-8.581-3.31-2.353-3.415-2.353-7.512.055-9.152 2.379-1.638 6.172-.162 8.583 3.222 2.346 3.474 2.346 7.571-.057 9.24m20.739 21.368c-2.105 2.322-6.589 1.695-9.867-1.473-3.358-3.092-4.29-7.488-2.186-9.81 2.136-2.322 6.644-1.67 9.947 1.471 3.335 3.092 4.347 7.514 2.106 9.812m28.613 12.405c-.931 3.01-5.247 4.372-9.593 3.092-4.346-1.317-7.184-4.838-6.309-7.873.9-3.03 5.24-4.453 9.619-3.087 4.338 1.311 7.182 4.807 6.283 7.868m23.279 8.148c-4.589.106-8.308-2.459-8.356-5.577 0-3.197 3.607-5.793 8.196-5.874 4.563-.087 8.308 2.459 8.308 5.601.103 3.167-3.585 5.793-8.148 5.85m30.23-3.721c-4.458.82-8.581-1.093-9.152-4.154-.553-3.167 2.676-6.34 7.129-7.16 4.539-.789 8.605 1.069 9.183 4.209.545 3.089-2.628 6.261-7.16 7.105"/></svg>