<svg xmlns="http://www.w3.org/2000/svg" viewBox="0 0 333 333"><circle fill-rule="evenodd" cx="166.5" cy="166.5" r="166.5"/><g fill="#fff"><path d="m226.82 69h-108.82v60h15.207c8.782-8 20.516-13.05 33.406-13.05 12.89 0 24.625 5.05 33.406 13.05h50.981v96.78c0 13.338-10.671 24.22-24.01 24.22h-120.75c-13.338 0-24.24-10.882-24.24-24.22v-147.48c-7 6.623-12 16.213-12 26.877v120.64c0 20.01 16.17 36.18 36.18 36.18h120.64c20.01 0 36.18-16.18 36.18-36.18v-120.64c0-20.01-16.17-36.18-36.18-36.18m17.18 35.912c0 6.666-4.21 12.09-10.879 12.09h-12.195c-6.669 0-11.925-5.422-11.925-12.09v-6.04c-.0001-6.666 5.256-10.876 11.924-10.876h12.195c6.67 0 10.88 4.21 10.88 10.876v6.04m-77.39 29.756c-20.309 0-36.773 16.464-36.773 36.774 0 20.309 16.464 36.773 36.773 36.773 20.31 0 36.773-16.464 36.773-36.773 0-20.31-16.463-36.774-36.773-36.774m0 61.3c-13.544 0-24.523-10.979-24.523-24.523 0-13.544 10.979-24.524 24.523-24.524 13.543 0 24.524 10.98 24.524 24.524 0 13.544-10.981 24.523-24.524 24.523m-59.61-126.96v60h-13v-58c4-1.324 7.966-1.999 12.178-1.999h.822"/><path fill-rule="evenodd" d="m226.82 69h-108.82v60h15.207c8.782-8 20.516-13.05 33.406-13.05 12.89 0 24.625 5.05 33.406 13.05h50.981v96.78c0 13.338-10.671 24.22-24.01 24.22h-120.75c-13.338 0-24.24-10.882-24.24-24.22v-147.48c-7 6.623-12 16.213-12 26.877v120.64c0 20.01 16.17 36.18 36.18 36.18h120.64c20.01 0 36.18-16.18 36.18-36.18v-120.64c0-20.01-16.17-36.18-36.18-36.18m17.18 35.912c0 6.666-4.21 12.09-10.879 12.09h-12.195c-6.669 0-11.925-5.422-11.925-12.09v-6.04c-.0001-6.666 5.256-10.876 11.924-10.876h12.195c6.67 0 10.88 4.21 10.88 10.876v6.04m-77.39 29.756c-20.309 0-36.773 16.464-36.773 36.774 0 20.309 16.464 36.773 36.773 36.773 20.31 0 36.773-16.464 36.773-36.773 0-20.31-16.463-36.774-36.773-36.774m0 61.3c-13.544 0-24.523-10.979-24.523-24.523 0-13.544 10.979-24.524 24.523-24.524 13.543 0 24.524 10.98 24.524 24.524 0 13.544-10.981 24.523-24.524 24.523m-59.61-126.96v60h-13v-58c4-1.324 7.966-1.999 12.178-1.999h.822"/></g></svg>