<svg xmlns="http://www.w3.org/2000/svg" xmlns:xlink="http://www.w3.org/1999/xlink" viewBox="0 0 333 333"><circle fill-rule="evenodd" cx="166.5" cy="166.5" r="166.5"/><path fill="#fff" d="m169.5 54.33c-58.719 0-89.89 39.4-89.89 82.34 0 19.941 10.614 44.784 27.61 52.69 2.587 1.204 3.955.676 4.541-1.81.455-1.896 2.758-11.122 3.784-15.43.338-1.375.171-2.556-.952-3.916-5.594-6.791-10.1-19.347-10.1-31.03 0-29.999 22.718-59.03 61.42-59.03 33.441 0 56.824 22.761 56.824 55.34 0 36.809-18.558 62.3-42.753 62.3-13.36 0-23.36-11.03-20.16-24.595 3.85-16.16 11.274-33.631 11.274-45.28 0-10.465-5.61-19.17-17.218-19.17-13.647 0-24.622 14.12-24.622 33.05 0 12.05 4.079 20.19 4.079 20.19s-13.477 57.02-15.94 67.63c-4.203 18.01.548 47.19.967 49.741.214 1.367 1.733 1.829 2.591.68 1.325-1.768 17.579-26.14 22.18-43.767 1.631-6.359 8.453-32.34 8.453-32.34 4.46 8.461 17.396 15.617 31.18 15.617 41.03 0 70.61-37.749 70.61-84.62.0001-44.956-36.676-78.59-83.88-78.59" id="0"/><use xlink:href="#0"/></svg>