<svg xmlns="http://www.w3.org/2000/svg" viewBox="0 0 333 333"><g fill="#fff"><path d="m166.5 0c-91.96 0-166.5 74.54-166.5 166.5 0 91.95 74.54 166.5 166.5 166.5 91.95 0 166.5-74.55 166.5-166.5 0-91.96-74.55-166.5-166.5-166.5m16.276 217.53c-13.788 0-26.724-7.156-31.18-15.617 0 0-6.822 25.982-8.453 32.34-4.596 17.626-20.85 41.999-22.17 43.767-.859 1.15-2.378.688-2.591-.68-.42-2.548-5.171-31.732-.967-49.742 2.463-10.613 15.94-67.64 15.94-67.64s-4.079-8.139-4.079-20.19c0-18.927 10.975-33.05 24.622-33.05 11.608 0 17.218 8.71 17.218 19.17 0 11.647-7.424 29.12-11.274 45.28-3.205 13.57 6.795 24.595 20.16 24.595 24.19 0 42.753-25.489 42.753-62.3 0-32.574-23.383-55.34-56.824-55.34-38.697 0-61.41 29.03-61.41 59.03 0 11.686 4.506 24.24 10.1 31.03 1.123 1.36 1.29 2.541.952 3.916-1.026 4.308-3.329 13.535-3.784 15.43-.586 2.486-1.954 3.01-4.541 1.81-16.996-7.906-27.61-32.749-27.61-52.69 0-42.939 31.17-82.34 89.89-82.34 47.2 0 83.88 33.631 83.88 78.59-.002 46.872-29.582 84.62-70.61 84.62"/><path fill-rule="evenodd" d="m166.5 0c-91.96 0-166.5 74.54-166.5 166.5 0 91.95 74.54 166.5 166.5 166.5 91.95 0 166.5-74.55 166.5-166.5 0-91.96-74.55-166.5-166.5-166.5m16.276 217.53c-13.788 0-26.724-7.156-31.18-15.617 0 0-6.822 25.982-8.453 32.34-4.596 17.626-20.85 41.999-22.17 43.767-.859 1.15-2.378.688-2.591-.68-.42-2.548-5.171-31.732-.967-49.742 2.463-10.613 15.94-67.64 15.94-67.64s-4.079-8.139-4.079-20.19c0-18.927 10.975-33.05 24.622-33.05 11.608 0 17.218 8.71 17.218 19.17 0 11.647-7.424 29.12-11.274 45.28-3.205 13.57 6.795 24.595 20.16 24.595 24.19 0 42.753-25.489 42.753-62.3 0-32.574-23.383-55.34-56.824-55.34-38.697 0-61.41 29.03-61.41 59.03 0 11.686 4.506 24.24 10.1 31.03 1.123 1.36 1.29 2.541.952 3.916-1.026 4.308-3.329 13.535-3.784 15.43-.586 2.486-1.954 3.01-4.541 1.81-16.996-7.906-27.61-32.749-27.61-52.69 0-42.939 31.17-82.34 89.89-82.34 47.2 0 83.88 33.631 83.88 78.59-.002 46.872-29.582 84.62-70.61 84.62"/></g></svg>