<svg xmlns="http://www.w3.org/2000/svg" viewBox="0 0 333 333"><g fill="#fff"><path d="m98.43 120.75c-5.09 1.492-8.01 6.828-6.515 11.919 1.492 5.09 6.828 8.01 11.919 6.515 30.04-8.805 91.78-10.402 128.89 14.15 1.631 1.079 3.47 1.595 5.289 1.595 3.115-.0001 6.172-1.514 8.02-4.308 2.926-4.424 1.711-10.383-2.713-13.31-42.658-28.21-110.41-26.665-144.89-16.556"/><path d="m214.33 204.54c-31.09-20.561-80.47-19.434-105.6-12.07-3.71 1.087-5.835 4.977-4.748 8.687s4.977 5.836 8.687 4.748c21.893-6.417 66.891-7.581 93.94 10.309 1.188.786 2.529 1.162 3.855 1.162 2.271 0 4.499-1.104 5.845-3.14 2.133-3.224 1.248-7.567-1.977-9.7"/><path d="m228.78 171.9c-36.555-24.18-94.61-22.85-124.17-14.187-4.362 1.279-6.861 5.851-5.583 10.214 1.279 4.362 5.851 6.862 10.214 5.583 25.742-7.546 78.65-8.914 110.45 12.12 1.397.924 2.973 1.366 4.533 1.366 2.67-.0001 5.289-1.298 6.873-3.692 2.507-3.791 1.466-8.897-2.326-11.405"/><path d="m0 0v333h333v-333h-333m166.34 274.18c-59.702-.07-108.34-48.685-107.55-109.23.769-58.5 48.5-106.8 109.03-106.12 59.03.663 106.38 48.599 106.4 107.75-.1 59.45-48.15 107.67-107.89 107.6"/><g fill-rule="evenodd"><path d="m98.43 120.75c-5.09 1.492-8.01 6.828-6.515 11.919 1.492 5.09 6.828 8.01 11.919 6.515 30.04-8.805 91.78-10.402 128.89 14.15 1.631 1.079 3.47 1.595 5.289 1.595 3.115-.0001 6.172-1.514 8.02-4.308 2.926-4.424 1.711-10.383-2.713-13.31-42.658-28.21-110.41-26.665-144.89-16.556"/><path d="m214.33 204.54c-31.09-20.561-80.47-19.434-105.6-12.07-3.71 1.087-5.835 4.977-4.748 8.687s4.977 5.836 8.687 4.748c21.893-6.417 66.891-7.581 93.94 10.309 1.188.786 2.529 1.162 3.855 1.162 2.271 0 4.499-1.104 5.845-3.14 2.133-3.224 1.248-7.567-1.977-9.7"/><path d="m228.78 171.9c-36.555-24.18-94.61-22.85-124.17-14.187-4.362 1.279-6.861 5.851-5.583 10.214 1.279 4.362 5.851 6.862 10.214 5.583 25.742-7.546 78.65-8.914 110.45 12.12 1.397.924 2.973 1.366 4.533 1.366 2.67-.0001 5.289-1.298 6.873-3.692 2.507-3.791 1.466-8.897-2.326-11.405"/><path d="m0 0v333h333v-333h-333m166.34 274.18c-59.702-.07-108.34-48.685-107.55-109.23.769-58.5 48.5-106.8 109.03-106.12 59.03.663 106.38 48.599 106.4 107.75-.1 59.45-48.15 107.67-107.89 107.6"/></g></g></svg>