<svg xmlns="http://www.w3.org/2000/svg" xmlns:xlink="http://www.w3.org/1999/xlink" viewBox="0 0 333 333"><circle fill-rule="evenodd" cx="166.5" cy="166.5" r="166.5"/><path fill="#fff" d="m167.82 58.828c-60.53-.679-108.27 47.626-109.03 106.12-.796 60.55 47.845 109.16 107.55 109.23 59.735.07 107.79-48.15 107.89-107.6-.019-59.16-47.36-107.09-106.4-107.76m48.48 155.42c-1.347 2.036-3.575 3.139-5.845 3.14-1.326 0-2.667-.376-3.855-1.162-27.05-17.89-72.05-16.727-93.94-10.309-3.71 1.088-7.599-1.038-8.687-4.748s1.038-7.599 4.748-8.687c25.13-7.368 74.51-8.495 105.6 12.07 3.224 2.132 4.109 6.475 1.977 9.7m14.796-30.936c-1.583 2.394-4.203 3.691-6.873 3.692-1.559 0-3.135-.442-4.533-1.366-31.805-21.03-84.71-19.667-110.45-12.12-4.362 1.279-8.935-1.221-10.214-5.583-1.279-4.362 1.221-8.935 5.583-10.214 29.551-8.663 87.61-9.988 124.17 14.187 3.792 2.507 4.833 7.613 2.326 11.405m6.918-28.388c-1.82 0-3.659-.516-5.289-1.595-37.12-24.547-98.86-22.95-128.89-14.15-5.09 1.493-10.427-1.424-11.919-6.515-1.492-5.09 1.424-10.427 6.515-11.919 34.485-10.11 102.24-11.655 144.89 16.555 4.424 2.926 5.639 8.885 2.713 13.31-1.848 2.795-4.905 4.309-8.02 4.309" id="0"/><use xlink:href="#0"/></svg>