<svg xmlns="http://www.w3.org/2000/svg" viewBox="0 0 333 333"><g fill="#fff"><path d="m0 0v333h333v-333h-333m248.61 123.68c1.441 54.23-35.879 127.28-121.61 127.28-23.501 0-48.23-6.71-63.905-19.657 0 0 32.985 6.615 61.832-16.554-7.617-.84-29.669-4.139-39.15-30.02 3.915.827 13.391 2.061 18.547 0-10.923-4.344-33.599-14.293-32.983-43.47 5.757 4.734 17.529 5.171 17.529 5.171-9.322-5.403-27.02-32.3-11.344-55.907 7.213 7.87 40.09 43.47 86.56 43.495-4.497-11.49 2.108-51.742 41.23-51.742 15.644 0 24.399 5.686 30.926 13.457 9.442-2.253 26.11-9.314 27.819-10.354 0 0-3.768 12.591-18.548 23.799 5.328-1.38 21.469-4.992 23.706-7.245 0-.002-6.519 12.247-20.604 21.74"/><path fill-rule="evenodd" d="m0 0v333h333v-333h-333m248.61 123.68c1.441 54.23-35.879 127.28-121.61 127.28-23.501 0-48.23-6.71-63.905-19.657 0 0 32.985 6.615 61.832-16.554-7.617-.84-29.669-4.139-39.15-30.02 3.915.827 13.391 2.061 18.547 0-10.923-4.344-33.599-14.293-32.983-43.47 5.757 4.734 17.529 5.171 17.529 5.171-9.322-5.403-27.02-32.3-11.344-55.907 7.213 7.87 40.09 43.47 86.56 43.495-4.497-11.49 2.108-51.742 41.23-51.742 15.644 0 24.399 5.686 30.926 13.457 9.442-2.253 26.11-9.314 27.819-10.354 0 0-3.768 12.591-18.548 23.799 5.328-1.38 21.469-4.992 23.706-7.245 0-.002-6.519 12.247-20.604 21.74"/></g></svg>