<svg xmlns="http://www.w3.org/2000/svg" xmlns:xlink="http://www.w3.org/1999/xlink" viewBox="0 0 333 333"><path fill-rule="evenodd" fill="#1ab7ea" d="m0 0h333v333h-333z"/><path fill="#fff" d="m261.3 114.72c-2.191 11.57-16.752 52.07-43.12 87.82-11.538 15.1-25.03 29.95-42.33 40.19-6.4 3.784-19 8.555-27.41 4.996-16.449-6.969-22.281-35.413-27.03-54.45-2.811-11.23-5.461-21.881-8.896-31.653-2.566-7.34-3.827-14.804-7.84-21.607-6.595-11.141-16.05-.435-25.971-1.895-4.198-.61-4.969-5.088-7.822-7.819v-1.075c14.407-11.49 27.11-25.421 43.758-35.21 5.231-3.086 14.15-6.396 21.357-4.276 6.704 1.96 12.199 11 14.586 18.495 2.776 8.717 4.274 19.276 5.679 27.75 2.532 15.11 1.702 37.795 12.801 49.658 12.307 13.178 21.695-5.106 26.708-14.419 4.325-8.08 8.209-16.502 8.87-24.19 1.626-18.378-7.119-20.851-23.813-19.585 9.405-29.25 37.1-41.461 45.29-42.71 10.06-1.542 24.743-1.22 31.642 7.515 4.936 6.226 4.97 14.459 3.538 22.47" id="0"/><use xlink:href="#0"/></svg>