<svg xmlns="http://www.w3.org/2000/svg" viewBox="0 0 333 333"><g fill="#fff"><path d="m142.94 198.02l59.95-32.66-59.95-31.38z"/><path d="m0 0v333h333v-333h-333m279.32 175.09c0 18.401-2.253 36.803-2.253 36.803s-2.205 15.67-8.97 22.57c-8.58 9.06-18.2 9.102-22.609 9.632-31.576 2.3-78.99 2.372-78.99 2.372s-58.667-.54-76.72-2.284c-5.02-.949-16.297-.663-24.88-9.72-6.765-6.901-8.967-22.57-8.967-22.57s-2.257-18.401-2.257-36.803v-17.251c0-18.401 2.257-36.803 2.257-36.803s2.202-15.67 8.967-22.57c8.583-9.06 18.2-9.102 22.609-9.632 31.577-2.3 78.941-2.3 78.941-2.3h.098c0 0 47.37 0 78.941 2.3 4.411.53 14.03.575 22.609 9.632 6.765 6.9 8.97 22.57 8.97 22.57s2.253 18.401 2.253 36.803v17.251"/><g fill-rule="evenodd"><path d="m142.94 198.02l59.95-32.66-59.95-31.38z"/><path d="m0 0v333h333v-333h-333m279.32 175.09c0 18.401-2.253 36.803-2.253 36.803s-2.205 15.67-8.97 22.57c-8.58 9.06-18.2 9.102-22.609 9.632-31.576 2.3-78.99 2.372-78.99 2.372s-58.667-.54-76.72-2.284c-5.02-.949-16.297-.663-24.88-9.72-6.765-6.901-8.967-22.57-8.967-22.57s-2.257-18.401-2.257-36.803v-17.251c0-18.401 2.257-36.803 2.257-36.803s2.202-15.67 8.967-22.57c8.583-9.06 18.2-9.102 22.609-9.632 31.577-2.3 78.941-2.3 78.941-2.3h.098c0 0 47.37 0 78.941 2.3 4.411.53 14.03.575 22.609 9.632 6.765 6.9 8.97 22.57 8.97 22.57s2.253 18.401 2.253 36.803v17.251"/></g></g></svg>