<svg xmlns="http://www.w3.org/2000/svg" xmlns:xlink="http://www.w3.org/1999/xlink" viewBox="0 0 333 333"><path fill-rule="evenodd" d="m0 0h333v333h-333z"/><path fill="#fff" d="m173.67 111.3c-7.238 7.23-14.383 14.367-21.618 21.594-.141-.095-.418-.235-.637-.438-14.515-13.44-37.91-13.819-54.02-1.276-26.767 20.835-21.264 63.781 10.145 76.43 15.409 6.208 30.354 4.426 43.831-5.647 6.646-4.967 10.36-12.09 12.147-20.391-1.314 0-1.51.0001-2.237 0-11.843-.017-23.687-.059-35.53.004-1.734.009-2.289-.47-2.275-2.223.07-8.676.057-17.354-.013-26.03-.013-1.61.545-2.025 2.088-2.02 22.1.04 44.21.04 66.31-.006 1.563-.003 2.109.396 2.385 2.042 2.994 17.815 1.205 35.03-7.02 51.21-10.154 19.969-26.832 31.36-48.671 35.34-14.319 2.611-28.478 1.732-41.98-3.88-25.763-10.708-41.545-29.908-46.46-57.4-5.543-31.02 9.935-62.4 37.538-77.56 12.11-6.652 25.08-9.802 38.834-9.293 17.57.65 33.09 6.699 46.25 18.523.362.326.663.718.933 1.014m109.1 41.998h-24.86v-24.86c0-.682-.553-1.235-1.235-1.235h-16.397c-.682 0-1.235.553-1.235 1.235v24.86h-24.86c-.682 0-1.235.553-1.235 1.235v16.397c0 .682.553 1.235 1.235 1.235h24.86v24.86c0 .682.553 1.235 1.235 1.235h16.397c.682 0 1.235-.553 1.235-1.235v-24.86h24.86c.682 0 1.235-.553 1.235-1.235v-16.397c0-.682-.553-1.235-1.235-1.235" id="0"/><use xlink:href="#0"/></svg>