<svg xmlns="http://www.w3.org/2000/svg" viewBox="0 0 333 333"><g fill="#fff"><path d="m0 0v333h333v-333h-333m53.24 208.46c-.108.533-1.101.925-2.317.925-1.233 0-2.237-.393-2.327-.925l-3.512-16.993 3.498-17.57c.096-.526 1.093-.927 2.327-.927 1.23 0 2.222.4 2.331.927l3.983 17.57-3.983 16.993m24.892 9.434c-.1 1.037-1.36 1.846-2.887 1.838-1.545 0-2.804-.801-2.882-1.838l-2.997-26.27 2.997-40.647c.078-1.044 1.338-1.845 2.882-1.845 1.527 0 2.787.807 2.887 1.852l3.376 40.64-3.376 26.27m24.844-.415c-.077 1.275-1.578 2.261-3.416 2.261-1.846 0-3.345-.986-3.405-2.245l-2.504-25.856 2.504-54.12c.06-1.274 1.56-2.268 3.405-2.268 1.839 0 3.339 1.01 3.416 2.268l2.816 54.12-2.816 25.84m24.792-.393c-.063 1.512-1.764 2.683-3.887 2.683-2.135 0-3.846-1.193-3.887-2.683l-2.064-25.441 2.057-54.51c.063-1.504 1.759-2.697 3.894-2.697 2.123 0 3.824 1.193 3.887 2.697l2.304 54.51-2.304 25.441m24.767-.319c-.037 1.712-1.987 3.098-4.34 3.083-2.36 0-4.302-1.393-4.343-3.098 0 0-1.637-25.08-1.637-25.12l1.637-62.49c.041-1.719 1.983-3.12 4.343-3.12 2.353 0 4.303 1.4 4.34 3.12l1.822 62.51-1.822 25.11m104.09 3.157c-.564 0-86.68-.052-86.75-.052-1.875-.171-3.346-1.72-3.376-3.58v-96.05c.015-1.765.659-2.654 3.01-3.55 6.069-2.275 12.954-3.616 20.01-3.616 28.846 0 52.51 21.395 55 48.666 3.728-1.52 7.807-2.356 12.11-2.356 17.285 0 31.29 13.546 31.29 30.27 0 16.712-14 30.27-31.29 30.27"/><path fill-rule="evenodd" d="m0 0v333h333v-333h-333m53.24 208.46c-.108.533-1.101.925-2.317.925-1.233 0-2.237-.393-2.327-.925l-3.512-16.993 3.498-17.57c.096-.526 1.093-.927 2.327-.927 1.23 0 2.222.4 2.331.927l3.983 17.57-3.983 16.993m24.892 9.434c-.1 1.037-1.36 1.846-2.887 1.838-1.545 0-2.804-.801-2.882-1.838l-2.997-26.27 2.997-40.647c.078-1.044 1.338-1.845 2.882-1.845 1.527 0 2.787.807 2.887 1.852l3.376 40.64-3.376 26.27m24.844-.415c-.077 1.275-1.578 2.261-3.416 2.261-1.846 0-3.345-.986-3.405-2.245l-2.504-25.856 2.504-54.12c.06-1.274 1.56-2.268 3.405-2.268 1.839 0 3.339 1.01 3.416 2.268l2.816 54.12-2.816 25.84m24.792-.393c-.063 1.512-1.764 2.683-3.887 2.683-2.135 0-3.846-1.193-3.887-2.683l-2.064-25.441 2.057-54.51c.063-1.504 1.759-2.697 3.894-2.697 2.123 0 3.824 1.193 3.887 2.697l2.304 54.51-2.304 25.441m24.767-.319c-.037 1.712-1.987 3.098-4.34 3.083-2.36 0-4.302-1.393-4.343-3.098 0 0-1.637-25.08-1.637-25.12l1.637-62.49c.041-1.719 1.983-3.12 4.343-3.12 2.353 0 4.303 1.4 4.34 3.12l1.822 62.51-1.822 25.11m104.09 3.157c-.564 0-86.68-.052-86.75-.052-1.875-.171-3.346-1.72-3.376-3.58v-96.05c.015-1.765.659-2.654 3.01-3.55 6.069-2.275 12.954-3.616 20.01-3.616 28.846 0 52.51 21.395 55 48.666 3.728-1.52 7.807-2.356 12.11-2.356 17.285 0 31.29 13.546 31.29 30.27 0 16.712-14 30.27-31.29 30.27"/></g></svg>