<svg xmlns="http://www.w3.org/2000/svg" viewBox="0 0 333 333"><circle fill-rule="evenodd" fill="#e52d27" cx="166.5" cy="166.5" r="166.5"/><path fill="#fff" d="m277.07 121.04c0 0-2.205-15.67-8.97-22.57-8.58-9.06-18.2-9.102-22.609-9.632-31.576-2.3-78.941-2.3-78.941-2.3h-.098c0 0-47.36 0-78.941 2.3-4.411.53-14.03.575-22.609 9.632-6.765 6.9-8.967 22.57-8.967 22.57s-2.257 18.401-2.257 36.803v17.251c0 18.401 2.257 36.803 2.257 36.803s2.202 15.67 8.967 22.57c8.583 9.06 19.859 8.771 24.88 9.72 18.05 1.744 76.72 2.284 76.72 2.284s47.41-.072 78.99-2.372c4.411-.53 14.03-.575 22.609-9.632 6.765-6.901 8.97-22.57 8.97-22.57s2.253-18.401 2.253-36.803v-17.251c.0001-18.402-2.253-36.803-2.253-36.803m-134.13 76.986v-64.04l59.954 31.38-59.954 32.663"/></svg>