<?xml version="1.0" encoding="utf-8"?>
<!-- Generator: Adobe Illustrator 19.1.0, SVG Export Plug-In . SVG Version: 6.00 Build 0)  -->
<svg version="1.1" id="レイヤー_1" xmlns="http://www.w3.org/2000/svg" xmlns:xlink="http://www.w3.org/1999/xlink" x="0px"
	 y="0px" viewBox="0 0 116 157" enable-background="new 0 0 116 157" xml:space="preserve">
<g>
	<path fill="#000000" d="M23.7,131.3h1.5c2.1,0,4-0.7,4-3.1c0-2.4-1.8-3.3-4-3.3h-1.5V131.3z"/>
	<path fill="#000000" d="M68.1,29.4c0-2.6-2-4.5-4.8-4.8v-0.1c2.5-0.5,4.2-2.2,4.2-4.7c0-4.6-4.1-5.4-6.8-5.4h-7.3v21h7.3
		C63.4,35.5,68.1,34.7,68.1,29.4z M57.6,17.8h1.6c1.9,0,4.1,0.2,4.1,2.6c0,2.2-2.2,2.6-4,2.6h-1.7V17.8z M57.6,32.2v-6.1h2
		c2.1,0,4.3,0.4,4.3,3.2c0,2.4-2.4,2.9-4.3,2.9H57.6z"/>
	<path fill="#000000" d="M23.2,68h-4.5v21h4.2v-8.7h1.4c1.8,0,2.3,0.6,2.9,2.2l2.5,6.6h4.7L31,80.8c-0.4-0.9-1.1-2.1-2.2-2.2v-0.1
		c2.7-0.4,4.3-2.4,4.3-4.9C33.1,67.9,27.7,68,23.2,68z M28.7,74.1c0,2.6-2.4,2.9-4.5,2.9h-1.4v-5.7h1.4
		C26.3,71.3,28.7,71.6,28.7,74.1z"/>
	<path fill="#000000" d="M89.7,25c0-8.3-5.7-10.5-12.1-10.5h-5.7v21h5.7C84,35.5,89.7,33.3,89.7,25z M76,17.8h2.3
		c3.5,0,6.9,2.6,6.9,7.2s-3.4,7.2-6.9,7.2H76V17.8z"/>
	<polygon fill="#000000" points="86.8,71.3 86.8,68 75.1,68 75.1,89 79.3,89 79.3,79.8 86.4,79.8 86.4,76.5 79.3,76.5 79.3,71.3 	
		"/>
	<path fill="#000000" d="M104,32.5c-4.5,0-7.1-3.2-7.1-7.5c0-4.3,2.7-7.6,7-7.6c1.5,0,2.9,0.2,4.5,1.1l0.3-3.6
		c-1.5-0.6-3.4-0.9-4.8-0.9c-7.1,0-11.5,4-11.5,11.2c0,7.1,4.7,10.5,11.5,10.5c1.6,0,3.3-0.3,4.8-0.7l-0.2-3.5
		C107.6,32.2,105.7,32.5,104,32.5z"/>
	<path fill="#000000" d="M90.4,139.8c-1.5,0-1.9-1.2-1.9-2.6v-7.2h3.6v-2.9h-3.6v-4.4l-4,1.3v3.1h-3v2.9h3v7.9c0,3.1,1.7,5,4.9,5
		c1.2,0,2.1-0.1,3-0.4l-0.1-3.2C91.8,139.7,91.1,139.8,90.4,139.8z"/>
	<path fill="#000000" d="M107.6,135.3v-2c0-4.6-2-6.5-6.7-6.5c-1.7,0-3.8,0.5-5.4,1.2l0.1,3.5c1.4-1,3.1-1.7,4.8-1.7
		c2.4,0,3.5,0.8,3.5,3.3h-2.2c-1.7,0-3.7,0.2-5.2,0.9c-1.5,0.8-2.6,2.1-2.6,4.4c0,2.9,2.7,4.6,5.4,4.6c1.8,0,3.9-1,4.8-2.7h0.1
		c0,0.5,0,1.5,0.2,2.3h3.6c-0.1-1.2-0.2-2.3-0.2-3.5C107.6,138,107.6,136.8,107.6,135.3z M103.1,138.6c-0.6,0.8-1.6,1.4-2.8,1.4
		c-1.4,0-2.6-0.6-2.6-1.9c0-2.4,2.7-2.7,4.5-2.7h1.7C103.9,136.6,103.7,137.8,103.1,138.6z"/>
	<path fill="#000000" d="M75.1,130.6L75.1,130.6l-0.1-3.5h-3.6v15.5h4v-5.7c0-2.2,0-6.3,3.3-6.3c0.7,0,1.4,0.1,1.8,0.3v-4.1
		c-0.4-0.1-0.8-0.1-1.2-0.1C77,126.7,75.3,129.2,75.1,130.6z"/>
	<rect x="111.7" y="120" fill="#000000" width="4" height="22.6"/>
	<path fill="#000000" d="M59.1,68h-5.7v21h5.7c6.4,0,12.1-2.2,12.1-10.5S65.6,68,59.1,68z M60,85.7h-2.3V71.3H60
		c3.5,0,6.9,2.6,6.9,7.2C66.9,83.1,63.5,85.7,60,85.7z"/>
	<path fill="#000000" d="M49.1,24.5C49.1,11,38.1,0,24.5,0C11,0,0,11,0,24.5c0,12.7,9.7,23.2,22.1,24.4v4.7C9.7,54.9,0,65.4,0,78.1
		c0,1.7,0.2,3.3,0.5,4.9c0.2,0.8,0.4,1.6,0.6,2.4c0.8,2.5,1.9,4.8,3.4,6.9c4,5.6,10.3,9.5,17.6,10.2v4.8C9.7,108.5,0,118.9,0,131.7
		c0,13.5,11,24.5,24.5,24.5c13.5,0,24.5-11,24.5-24.5c0-12.7-9.7-23.2-22.1-24.4v-4.7c1.7-0.2,3.3-0.5,4.8-1
		c0.8-0.2,1.5-0.5,2.3-0.8c1.1-0.5,2.2-1,3.2-1.6c1.7-1,3.2-2.2,4.6-3.6c4.4-4.4,7.2-10.6,7.2-17.3c0-11-7.3-20.3-17.2-23.4
		c-0.8-0.2-1.6-0.4-2.4-0.6c-0.8-0.2-1.6-0.3-2.5-0.4v-4.7C39.4,47.7,49.1,37.3,49.1,24.5z M33.6,128c0,4.9-3.6,6.7-8.1,6.7h-1.8v8
		h-4.2v-21h5.3C29.4,121.6,33.6,122.9,33.6,128z M44.9,78.1c0,11.2-9.2,20.4-20.4,20.4S4.1,89.3,4.1,78.1c0-11.2,9.2-20.4,20.4-20.4
		S44.9,66.8,44.9,78.1z M21.2,19.8L21.2,19.8l-0.1,15.7h-4v-21h5.2l8,15.7h0.1V14.5h4v21h-5.1L21.2,19.8z"/>
	<path fill="#000000" d="M60.1,126.7c-4.6,0-8.1,3.1-8.1,8.2c0,4.5,3,8,8.1,8c5.1,0,8.1-3.6,8.1-8C68.3,129.8,64.7,126.7,60.1,126.7
		z M60.1,139.8c-3.1,0-3.9-2.8-3.9-5.4c0-2.3,1.3-4.6,3.9-4.6c2.6,0,3.9,2.2,3.9,4.6C64,137.1,63.2,139.8,60.1,139.8z"/>
</g>
</svg>
