<svg xmlns="http://www.w3.org/2000/svg" viewBox="0 0 333 333"><g fill="#fff"><path d="m120.05 174.34h-29.731v35.392c0 0 13.574 0 29.731 0 16.16 0 20.594-9.606 20.594-17.696s-3.326-17.696-20.594-17.696"/><path d="m137.9 137.67c0-9.185-4.861-14.662-17.692-14.662h-29.889v29.321c0 0 18.483 0 29.731 0 11.247.0001 17.85-5.476 17.85-14.659"/><path d="m0 0v333h333v-333h-333m199.11 106.57h53.55v13.28h-53.55v-13.28m-76.999 126.49c-20.909 0-62.43 0-62.43 0v-133.12h64.22c31.89 0 40.503 19.05 40.503 34.45 0 15.404-6.493 21.672-16.296 27.12 8.416 3.386 20.574 10.557 20.574 30.529 0 31.538-25.664 41.03-46.574 41.03m151.12-43.563h-68.59c0 12.359 6.811 23.307 21.248 23.307 14.434 0 17.958-5.546 21.583-10.789h25.663c-4.753 21.23-24.14 31.05-47.25 31.05-23.11 0-47.07-12.359-47.07-50.23 0-37.868 25.663-50.857 47.07-50.857 30.12 0 47.43 19.328 47.43 50.54l-.09 6.97"/><path d="m226.08 152.59c-12.564 0-21.505 8.857-21.505 20.19h42.899c0-11.488-8.831-20.19-21.394-20.19"/><g fill-rule="evenodd"><path d="m120.05 174.34h-29.731v35.392c0 0 13.574 0 29.731 0 16.16 0 20.594-9.606 20.594-17.696s-3.326-17.696-20.594-17.696"/><path d="m137.9 137.67c0-9.185-4.861-14.662-17.692-14.662h-29.889v29.321c0 0 18.483 0 29.731 0 11.247.0001 17.85-5.476 17.85-14.659"/><path d="m0 0v333h333v-333h-333m199.11 106.57h53.55v13.28h-53.55v-13.28m-76.999 126.49c-20.909 0-62.43 0-62.43 0v-133.12h64.22c31.89 0 40.503 19.05 40.503 34.45 0 15.404-6.493 21.672-16.296 27.12 8.416 3.386 20.574 10.557 20.574 30.529 0 31.538-25.664 41.03-46.574 41.03m151.12-43.563h-68.59c0 12.359 6.811 23.307 21.248 23.307 14.434 0 17.958-5.546 21.583-10.789h25.663c-4.753 21.23-24.14 31.05-47.25 31.05-23.11 0-47.07-12.359-47.07-50.23 0-37.868 25.663-50.857 47.07-50.857 30.12 0 47.43 19.328 47.43 50.54l-.09 6.97"/><path d="m226.08 152.59c-12.564 0-21.505 8.857-21.505 20.19h42.899c0-11.488-8.831-20.19-21.394-20.19"/></g></g></svg>