<svg xmlns="http://www.w3.org/2000/svg" xmlns:xlink="http://www.w3.org/1999/xlink" viewBox="0 0 333 333"><circle fill-rule="evenodd" fill="#a2a2a2" cx="166.5" cy="166.5" r="166.5"/><path fill="#fff" d="m166.34 126.35c-1.093 0-9.02.02-10.117.033v-20.05c-9.414 0-12.608 1.55-19.634 2.812v20.501c-46.19 9.175-89.01 32.771-89.01 65.05 0 3.798.475 7.534 1.364 11.177h107.42v-62.703c16.865 0 72.6-1.39 82.02 42.747h-42.25c0-11.789 0-25.02 0-25.02-7.375-2.53-21.18-4.501-29.898-4.501v49.48h117.81c.9-3.643 1.364-7.379 1.364-11.177.0001-39.801-56.22-68.35-119.07-68.35m-29.616 59.57h-42.28c0-13.922 20.641-34.31 42.28-38.669v38.669" id="0"/><use xlink:href="#0"/></svg>