<svg xmlns="http://www.w3.org/2000/svg" viewBox="0 0 333 333"><path fill-rule="evenodd" fill="#696969" d="m0 0h333v333h-333z"/><path fill="#fff" d="m276.4 166.17c0 59.898-50.02 110.24-109.91 110.24-59.866 0-109.89-50.34-109.89-110.24 0-59.887 50.02-109.58 109.89-109.58 59.886-.0001 109.91 49.693 109.91 109.58m-89.9-21.943c2.152 4.416 4.223 8.91 6.16 13.443.686 1.6 1.35 3.194 1.994 4.786 30.864-3.882 61.53 2.339 64.58 2.974-.196-21.882-8.02-41.992-20.947-57.788-1.945 2.646-17.484 22.578-51.788 36.585m-41.735-68.1c2.561 3.429 19.42 26.373 34.597 54.3 32.994-12.354 46.959-31.13 48.621-33.513-16.39-14.524-37.923-23.372-61.49-23.372-7.472-.0001-14.746.9-21.728 2.583m-69.06 71.19c4.148.059 42.36.224 85.76-11.303-15.383-27.322-31.958-50.3-34.403-53.651-25.954 12.236-45.36 36.17-51.36 64.954m21.876 81.03c2.112-3.594 27.568-45.764 75.41-61.22 1.214-.402 2.425-.769 3.647-1.112-2.317-5.271-4.86-10.549-7.52-15.746-46.31 13.873-91.27 13.297-95.31 13.209-.029.943-.059 1.888-.059 2.836.0001 23.816 9.05 45.583 23.842 62.03m105.15 23.372c-1.389-8.138-6.768-36.507-19.793-70.36-.205.073-.402.13-.605.205-52.33 18.232-71.11 54.52-72.78 57.935 15.742 12.262 35.496 19.591 56.933 19.591 12.858 0 25.11-2.631 36.24-7.373m55.35-70.67c-3.188-1-28.71-8.626-57.784-3.975 12.146 33.35 17.09 60.51 18.02 66.15 20.809-14.08 35.636-36.36 39.762-62.18"/></svg>