<svg xmlns="http://www.w3.org/2000/svg" viewBox="480.001 0 800.002 800.002"><g fill="#fff"><path d="m773.21 650.53c-4.453.82-7.682 3.994-7.129 7.16.572 3.061 4.695 4.974 9.153 4.154 4.532-.844 7.706-4.02 7.16-7.105-.579-3.14-4.645-4.998-9.184-4.209"/><path d="m705.82 652.64c-.875 3.035 1.963 6.556 6.309 7.873 4.346 1.279 8.662-.086 9.593-3.092.9-3.061-1.944-6.558-6.283-7.868-4.379-1.366-8.719.057-9.619 3.087"/><path d="m758.83 781.22c19.19 3.552 26.24-8.333 26.24-18.473 0-9.153-.354-39.41-.521-71.49-106.82 23.23-129.36-45.3-129.36-45.3-17.466-44.38-42.634-56.18-42.634-56.18-34.841-23.833 2.626-23.342 2.626-23.342 38.555 2.707 58.86 39.574 58.86 39.574 34.25 58.698 89.83 41.727 111.74 31.917 3.446-24.813 13.393-41.758 24.378-51.35-85.29-9.707-174.95-42.635-174.95-189.76 0-41.921 15-76.18 39.567-103.06-3.987-9.674-17.13-48.725 3.719-101.62 0 0 32.25-10.315 105.62 39.37 30.632-8.51 63.48-12.775 96.11-12.925 32.631.15 65.5 4.415 96.19 12.925 73.29-49.68 105.49-39.37 105.49-39.37 20.901 52.892 7.756 91.94 3.769 101.62 24.622 26.89 39.517 61.14 39.517 103.06 0 147.48-89.83 179.95-175.33 189.46 13.773 11.917 26.04 35.28 26.04 71.11 0 51.38-.44 92.73-.44 105.38 0 10.1 6.772 21.888 25.715 18.525l.333-.077c161.5-51.43 278.5-202.64 278.5-381.19 0-220.92-179.09-400-400-400-220.91 0-400 179.09-400 400 0 178.49 116.91 329.64 278.33 381.12l.502.091"/><path d="m736.65 659.99c.048 3.118 3.767 5.682 8.357 5.577 4.563-.057 8.252-2.683 8.148-5.85 0-3.142-3.745-5.687-8.308-5.601-4.591.081-8.197 2.676-8.197 5.874"/><path d="m681.06 633.73c-2.105 2.322-1.172 6.718 2.186 9.811 3.279 3.168 7.763 3.795 9.868 1.473 2.241-2.298 1.229-6.72-2.107-9.812-3.303-3.142-7.811-3.795-9.947-1.472"/><path d="m631.65 579.59c-.901 1.913.658 4.515 3.446 5.769 2.732 1.309 5.738.739 6.582-1.174.963-1.913-.627-4.539-3.415-5.793-2.781-1.311-5.787-.764-6.613 1.198"/><path d="m663.85 611.18c-2.409 1.64-2.409 5.738-.055 9.153 2.378 3.415 6.228 4.948 8.581 3.31 2.403-1.67 2.403-5.767.057-9.241-2.411-3.385-6.204-4.861-8.583-3.222"/><path d="m648.26 591.78c-1.856 1.72-1.392 5.302 1.124 7.979 2.428 2.683 6.01 3.472 7.842 1.777 1.913-1.72 1.423-5.271-1.093-7.979-2.513-2.677-5.986-3.473-7.873-1.777"/></g></svg>