<svg xmlns="http://www.w3.org/2000/svg" viewBox="0 0 463.333 463.333"><path fill="#a2a1a1" d="m0 0h463.33v463.33h-463.33z"/><path fill="#fff" d="m286.95 443.75c0-7.326.255-33.27.255-63.03 0-20.747-7.106-34.28-15.08-41.18 49.52-5.506 101.55-24.311 101.55-109.73 0-24.279-8.627-44.12-22.887-59.692 2.309-5.603 9.922-28.22-2.183-58.854 0 0-18.647-5.974-61.09 22.799-17.773-4.929-36.812-7.399-55.711-7.486-18.899.087-37.923 2.557-55.664 7.486-42.495-28.773-61.17-22.799-61.17-22.799-12.08 30.634-4.463 53.25-2.154 58.854-14.227 15.574-22.916 35.413-22.916 59.692 0 85.21 51.928 104.28 101.32 109.91-6.362 5.553-12.12 15.367-14.12 29.738-12.692 5.682-44.882 15.511-64.716-18.485 0 0-11.76-21.352-34.09-22.92 0 0-21.7-.284-1.521 13.519 0 0 14.576 6.837 24.692 32.54 0 0 13.06 39.693 74.923 26.24.097 18.582.302 36.1.302 41.4 0 9.509-3.101 18.01-18.601 21.58 24.875 0 49 0 73.58 0 24.505 0 47.42 0 73.29 0-12.456-.992-18.01-8.322-18.01-19.581m-193.31-105.41c-.489 1.108-2.23 1.438-3.812.68-1.615-.726-2.518-2.233-1.996-3.341.478-1.136 2.219-1.453 3.83-.694 1.615.726 2.536 2.247 1.978 3.355m9.01 10.05c-1.061.982-3.136.525-4.542-1.029-1.457-1.55-1.726-3.625-.651-4.621 1.093-.982 3.104-.521 4.56 1.029 1.457 1.568 1.741 3.625.633 4.621m8.768 12.806c-1.363.949-3.593.061-4.97-1.917-1.363-1.978-1.363-4.351.032-5.301 1.378-.949 3.575-.094 4.971 1.866 1.359 2.01 1.359 4.385-.033 5.352m12.01 12.376c-1.219 1.345-3.816.982-5.715-.853-1.945-1.791-2.485-4.337-1.266-5.682 1.237-1.345 3.848-.967 5.761.852 1.932 1.791 2.518 4.352 1.22 5.683m16.572 7.185c-.539 1.741-3.039 2.532-5.556 1.791-2.517-.763-4.161-2.802-3.654-4.56.521-1.755 3.035-2.579 5.571-1.788 2.513.759 4.16 2.784 3.639 4.557m13.483 4.719c-2.658.061-4.812-1.424-4.84-3.23 0-1.852 2.089-3.355 4.747-3.402 2.643-.05 4.812 1.424 4.812 3.244.06 1.834-2.076 3.355-4.719 3.388m17.507-2.155c-2.582.475-4.97-.633-5.301-2.406-.32-1.834 1.55-3.672 4.129-4.147 2.629-.457 4.984.619 5.319 2.438.316 1.789-1.522 3.626-4.147 4.115"/></svg>