<svg xmlns="http://www.w3.org/2000/svg" viewBox="0 0 333 333"><g fill="#fff"><path d="m166.5 0c-91.96 0-166.5 74.54-166.5 166.5 0 91.95 74.54 166.5 166.5 166.5 91.95 0 166.5-74.55 166.5-166.5 0-91.96-74.55-166.5-166.5-166.5m52.658 236.16c-4.05 2.01-8.362 3.266-12.852 3.746-8.662.926-16.712-.814-23.752-6.12-4.405-3.32-7.501-7.651-8.506-13.171-1.18-6.482.044-12.53 3.859-17.974 5.215-7.441 12.366-11.976 21.16-14.01 2.971-.689 5.992-.976 9.04-1 3.788-.031 7.455.663 11.07 1.722.34.1.687.181 1.035.247.214.04.436.034.747.055 0-21.65 0-43.23 0-64.877-1.688 0-3.332-.09-4.963.02-2.841.192-5.681.442-8.508.783-6.407.773-12.83 1.462-19.2 2.465-10.118 1.593-20.19 3.466-30.11 6.05-6.657 1.736-13.304 3.513-19.944 5.313-1.428.387-1.405.47-1.409 1.945-.067 25.411-.137 50.821-.199 76.23-.001 4.203.118 8.409.002 12.609-.113 4.081-.504 8.162-2.218 11.947-2.497 5.515-6.49 9.733-11.577 12.947-4.885 3.086-10.205 5.02-15.926 5.775-18.8 3.03-30.847-8.529-32.929-16.963-2.504-9.941.656-18.299 7.843-25.21 5.147-4.947 11.372-8.07 18.406-9.419 6.602-1.261 13.13-.899 19.533 1.256.181.061.364.115.549.163.049.013.107-.008.266-.023.017-.347.05-.714.051-1.081.047-17.856.108-35.713.129-53.57.021-18.13.002-36.26 0-54.39 0-2.058-.016-4.116.008-6.174.009-.793.049-1.596.198-2.37.053-.277.428-.596.727-.706 2.897-1.071 5.832-2.044 8.712-3.157 6-2.318 12.171-4.08 18.366-5.768 8.464-2.306 17.03-4.155 25.661-5.718 4.812-.871 9.642-1.657 14.483-2.347 3.221-.459 6.476-.684 9.717-1.01 3.16-.318 6.318-.655 9.481-.941 2.919-.264 5.843-.482 8.766-.705 4.262-.325 8.523-.67 12.789-.939 2.319-.146 4.651-.296 6.999.167.021.241.054.455.056.669.108 13.789.283 27.577.304 41.37.047 31.32-.057 62.64.055 93.95.049 13.348-6.263 22.434-17.915 28.21"/><path fill-rule="evenodd" d="m166.5 0c-91.96 0-166.5 74.54-166.5 166.5 0 91.95 74.54 166.5 166.5 166.5 91.95 0 166.5-74.55 166.5-166.5 0-91.96-74.55-166.5-166.5-166.5m52.658 236.16c-4.05 2.01-8.362 3.266-12.852 3.746-8.662.926-16.712-.814-23.752-6.12-4.405-3.32-7.501-7.651-8.506-13.171-1.18-6.482.044-12.53 3.859-17.974 5.215-7.441 12.366-11.976 21.16-14.01 2.971-.689 5.992-.976 9.04-1 3.788-.031 7.455.663 11.07 1.722.34.1.687.181 1.035.247.214.04.436.034.747.055 0-21.65 0-43.23 0-64.877-1.688 0-3.332-.09-4.963.02-2.841.192-5.681.442-8.508.783-6.407.773-12.83 1.462-19.2 2.465-10.118 1.593-20.19 3.466-30.11 6.05-6.657 1.736-13.304 3.513-19.944 5.313-1.428.387-1.405.47-1.409 1.945-.067 25.411-.137 50.821-.199 76.23-.001 4.203.118 8.409.002 12.609-.113 4.081-.504 8.162-2.218 11.947-2.497 5.515-6.49 9.733-11.577 12.947-4.885 3.086-10.205 5.02-15.926 5.775-18.8 3.03-30.847-8.529-32.929-16.963-2.504-9.941.656-18.299 7.843-25.21 5.147-4.947 11.372-8.07 18.406-9.419 6.602-1.261 13.13-.899 19.533 1.256.181.061.364.115.549.163.049.013.107-.008.266-.023.017-.347.05-.714.051-1.081.047-17.856.108-35.713.129-53.57.021-18.13.002-36.26 0-54.39 0-2.058-.016-4.116.008-6.174.009-.793.049-1.596.198-2.37.053-.277.428-.596.727-.706 2.897-1.071 5.832-2.044 8.712-3.157 6-2.318 12.171-4.08 18.366-5.768 8.464-2.306 17.03-4.155 25.661-5.718 4.812-.871 9.642-1.657 14.483-2.347 3.221-.459 6.476-.684 9.717-1.01 3.16-.318 6.318-.655 9.481-.941 2.919-.264 5.843-.482 8.766-.705 4.262-.325 8.523-.67 12.789-.939 2.319-.146 4.651-.296 6.999.167.021.241.054.455.056.669.108 13.789.283 27.577.304 41.37.047 31.32-.057 62.64.055 93.95.049 13.348-6.263 22.434-17.915 28.21"/></g></svg>