<svg xmlns="http://www.w3.org/2000/svg" xmlns:xlink="http://www.w3.org/1999/xlink" viewBox="0 0 333 333"><path fill-rule="evenodd" fill="#a2a2a2" d="m0 0h333v333h-333z"/><path fill="#fff" d="m263.13 188.58c1.482-6.763 2.266-13.771 2.266-21 0-54.01-43.79-97.81-97.8-97.81-5.715 0-11.3.497-16.74 1.429-8.729-5.504-19.09-8.699-30.17-8.699-31.32 0-56.71 25.39-56.71 56.72 0 10.478 2.845 20.28 7.786 28.683-1.289 6.371-1.978 12.956-1.978 19.675 0 54.03 43.79 97.83 97.81 97.83 6.117 0 12.11-.573 17.906-1.642 7.979 4.298 17.11 6.722 26.805 6.722 31.33 0 56.72-25.392 56.72-56.722 0-9.06-2.125-17.602-5.894-25.19m-46.13 25.476c-4.529 6.413-11.216 11.473-19.872 15.07-8.572 3.578-18.859 5.377-30.561 5.377-14.05 0-25.842-2.455-35.03-7.344-6.582-3.536-12-8.361-16.11-14.289-4.149-5.989-6.264-11.939-6.264-17.675 0-3.578 1.375-6.69 4.083-9.229 2.688-2.541 6.117-3.811 10.202-3.811 3.365 0 6.286 1.017 8.614 3.01 2.286 1.904 4.191 4.742 5.737 8.381 1.735 3.98 3.639 7.324 5.629 9.949 1.926 2.541 4.678 4.678 8.19 6.352 3.556 1.693 8.339 2.539 14.223 2.539 8.09 0 14.689-1.735 19.705-5.144 4.847-3.323 7.237-7.325 7.237-12.192 0-3.874-1.27-6.923-3.789-9.294-2.666-2.477-6.178-4.423-10.433-5.757-4.445-1.377-10.476-2.879-17.948-4.447-10.16-2.159-18.774-4.742-25.631-7.663-7.01-2.985-12.677-7.134-16.804-12.299-4.212-5.269-6.308-11.853-6.308-19.602 0-7.386 2.201-14.05 6.624-19.812 4.362-5.695 10.753-10.14 18.985-13.167 8.107-3.01 17.779-4.531 28.679-4.531 8.739 0 16.444 1.017 22.835 3.01 6.455 2.01 11.895 4.72 16.15 8.06 4.296 3.365 7.514 6.942 9.523 10.689 2.032 3.769 3.048 7.494 3.048 11.157 0 3.492-1.355 6.668-4 9.42-2.686 2.816-6.073 4.212-10.05 4.212-3.619 0-6.455-.889-8.423-2.625-1.841-1.63-3.725-4.149-5.842-7.77-2.433-4.656-5.374-8.297-8.783-10.858-3.279-2.519-8.763-3.789-16.316-3.789-7.01 0-12.721 1.417-16.953 4.191-4.085 2.69-6.05 5.758-6.05 9.4 0 2.201.635 4.085 1.946 5.673 1.397 1.713 3.367 3.196 5.842 4.423 2.539 1.291 5.205 2.33 7.852 3.048 2.73.782 7.281 1.884 13.545 3.345 7.896 1.693 15.196 3.578 21.631 5.631 6.497 2.095 12.13 4.678 16.72 7.663 4.676 3.048 8.381 6.964 11.03 11.642 2.646 4.7 3.98 10.5 3.98 17.232.0001 8.04-2.307 15.388-6.836 21.824" id="0"/><use xlink:href="#0"/></svg>