<svg xmlns="http://www.w3.org/2000/svg" viewBox="0 0 333 333"><circle fill-rule="evenodd" fill="#55acee" cx="166.5" cy="166.5" r="166.5"/><g fill="#fff"><path d="m245.51 109.19c14.78-11.208 18.548-23.799 18.548-23.799-1.705 1.04-18.377 8.101-27.819 10.354-6.528-7.77-15.283-13.457-30.927-13.457-39.12 0-45.724 40.25-41.23 51.742-46.48-.026-79.35-35.625-86.56-43.495-15.679 23.607 2.02 50.5 11.344 55.907 0 0-11.772-.437-17.53-5.171-.616 29.18 22.06 39.13 32.983 43.47-5.156 2.061-14.632.827-18.547 0 9.484 25.878 31.536 29.18 39.15 30.02-28.847 23.17-61.832 16.554-61.832 16.554 15.679 12.947 40.4 19.657 63.905 19.657 85.73 0 123.05-73.06 121.61-127.28 14.09-9.493 20.605-21.743 20.605-21.743-2.237 2.256-18.377 5.868-23.705 7.248"/><path fill-rule="evenodd" d="m245.51 109.19c14.78-11.208 18.548-23.799 18.548-23.799-1.705 1.04-18.377 8.101-27.819 10.354-6.528-7.77-15.283-13.457-30.927-13.457-39.12 0-45.724 40.25-41.23 51.742-46.48-.026-79.35-35.625-86.56-43.495-15.679 23.607 2.02 50.5 11.344 55.907 0 0-11.772-.437-17.53-5.171-.616 29.18 22.06 39.13 32.983 43.47-5.156 2.061-14.632.827-18.547 0 9.484 25.878 31.536 29.18 39.15 30.02-28.847 23.17-61.832 16.554-61.832 16.554 15.679 12.947 40.4 19.657 63.905 19.657 85.73 0 123.05-73.06 121.61-127.28 14.09-9.493 20.605-21.743 20.605-21.743-2.237 2.256-18.377 5.868-23.705 7.248"/></g></svg>